HIERARCHY
ROOT root
{
	OFFSET	0	13.1	24.9
	CHANNELS 6  Xposition Yposition Zposition Xrotation Yrotation Zrotation
	JOINT spine_1
	{
		OFFSET	0	9.99999	0
		CHANNELS 3  Xrotation Yrotation Zrotation
		JOINT spine_2
		{
			OFFSET	0	112	-10
			CHANNELS 3  Xrotation Yrotation Zrotation
			JOINT spine_3
			{
				OFFSET	0	206.5	19.3
				CHANNELS 3  Xrotation Yrotation Zrotation
				JOINT spine_4
				{
					OFFSET	0	110.4	14.6
					CHANNELS 3  Xrotation Yrotation Zrotation
					JOINT neck_1
					{
						OFFSET	0	71.8	-50.3
						CHANNELS 3  Xrotation Yrotation Zrotation
						JOINT neck_2
						{
							OFFSET	0	86.2	-25.8
							CHANNELS 3  Xrotation Yrotation Zrotation
							JOINT head_ee
							{
								OFFSET	0	179.8	-8.7
								CHANNELS 3  Xrotation Yrotation Zrotation
								End Site
								{
									OFFSET	1	0	0
								}
							}
						}
					}
					JOINT left_clavicle
					{
						OFFSET	-43.2	22.4	-70.8
						CHANNELS 3  Xrotation Yrotation Zrotation
						JOINT left_shoulder
						{
							OFFSET	-93.9	-5.79999	48.7
							CHANNELS 3  Xrotation Yrotation Zrotation
							JOINT left_elbow
							{
								OFFSET	-291.4	-30.8	15.2
								CHANNELS 3  Xrotation Yrotation Zrotation
								JOINT left_lowarm_twist
								{
									OFFSET	-110.7	-3.89999	13.6
									CHANNELS 3  Xrotation Yrotation Zrotation
									JOINT left_hand
									{
										OFFSET	-110.7	-3.89999	13.6
										CHANNELS 3  Xrotation Yrotation Zrotation
										JOINT left_ee
										{
											OFFSET	-80.8	-5.10001	12.1
											CHANNELS 3  Xrotation Yrotation Zrotation
											End Site
											{
												OFFSET	1	0	0
											}
										}
									}
								}
							}
						}
					}
					JOINT right_clavicle
					{
						OFFSET	43.2	22.4	-70.8
						CHANNELS 3  Xrotation Yrotation Zrotation
						JOINT right_shoulder
						{
							OFFSET	93.9	-5.79999	48.7
							CHANNELS 3  Xrotation Yrotation Zrotation
							JOINT right_elbow
							{
								OFFSET	291.4	-30.8	15.2
								CHANNELS 3  Xrotation Yrotation Zrotation
								JOINT right_lowarm_twist
								{
									OFFSET	110.7	-3.89999	13.6
									CHANNELS 3  Xrotation Yrotation Zrotation
									JOINT right_hand
									{
										OFFSET	110.7	-3.89999	13.6
										CHANNELS 3  Xrotation Yrotation Zrotation
										JOINT right_ee
										{
											OFFSET	80.8	-5.10001	12.1
											CHANNELS 3  Xrotation Yrotation Zrotation
											End Site
											{
												OFFSET	1	0	0
											}
										}
									}
								}
							}
						}
					}
				}
			}
		}
	}
	JOINT left_hip
	{
		OFFSET	-82.8	-127.5	0.300001
		CHANNELS 3  Xrotation Yrotation Zrotation
		JOINT left_knee
		{
			OFFSET	-28.2	-396.7	2.2
			CHANNELS 3  Xrotation Yrotation Zrotation
			JOINT left_ankle
			{
				OFFSET	-11.7	-411.3	35.4
				CHANNELS 3  Xrotation Yrotation Zrotation
				JOINT left_toes
				{
					OFFSET	0	-60	-88.6
					CHANNELS 3  Xrotation Yrotation Zrotation
					JOINT left_foot_ee
					{
						OFFSET	-22.5	-16.5	-42.2
						CHANNELS 3  Xrotation Yrotation Zrotation
						End Site
						{
							OFFSET	1	0	0
						}
					}
				}
			}
		}
	}
	JOINT right_hip
	{
		OFFSET	82.8	-127.5	0.300001
		CHANNELS 3  Xrotation Yrotation Zrotation
		JOINT right_knee
		{
			OFFSET	28.2	-396.7	2.2
			CHANNELS 3  Xrotation Yrotation Zrotation
			JOINT right_ankle
			{
				OFFSET	11.7	-411.3	35.4
				CHANNELS 3  Xrotation Yrotation Zrotation
				JOINT right_toes
				{
					OFFSET	0	-60	-88.6
					CHANNELS 3  Xrotation Yrotation Zrotation
					JOINT right_foot_ee
					{
						OFFSET	22.5	-16.5	-42.2
						CHANNELS 3  Xrotation Yrotation Zrotation
						End Site
						{
							OFFSET	1	0	0
						}
					}
				}
			}
		}
	}
}
MOTION
Frames: 9
Frame Time: 0.02
559.781859494 713.075 -1140.31888798 172.583275875 -63.0435752608 176.350398985 -5.15807 -0.297536 -0.337118 -5.15804 -0.275481 -0.355368 -5.15617 -0.157428 -0.421179 -5.15634 -0.221969 -0.391031 3.27524 6.41885 2.38549 3.35491 9.12402 3.09813 -0.0 0.0 -0.0 6.13672 23.7256 11.1962 -3.70469 -36.5982 57.5764 0.980116 -25.897 0.225355 -9.66127 -0.438827 1.15314 7.36055 -12.9397 49.6539 -0.0 0.0 -0.0 6.91163 10.0027 -13.2005 -28.9113 58.7055 -34.9378 0.704967 19.2502 -0.119556 -29.6492 1.92351 -3.22262 -12.0843 -32.5125 68.1741 0.0 0.0 0.0 -4.02673 -17.5042 3.43696 -10.9297 0.293466 1.64914 -20.6702 15.267 3.12862 2.80333 -0.0 -0.0 -0.0 0.0 -0.0 36.9086 22.2956 -13.8869 -57.4763 1.93373 -8.24157 -20.6071 -14.3444 -3.11363 16.5067 -0.0 -0.0 0.0 0.0 0.0 
571.194243126 704.538 -1136.50092973 174.192323627 -60.4000672278 177.639527132 -5.34909 -0.219175 -0.500497 -5.34897 -0.186884 -0.513429 -5.34696 -0.0240405 -0.545854 -5.34735 -0.109945 -0.535207 3.46873 6.98936 2.89804 3.56111 9.65368 3.70132 -0.0 0.0 -0.0 5.95155 23.3752 10.9584 -2.38835 -37.0611 58.2914 1.1865 -30.4442 0.322868 -7.92072 -0.34547 0.951037 7.73759 -13.5987 53.0109 -0.0 0.0 -0.0 7.06981 10.8382 -13.5001 -28.5313 57.2722 -35.5573 0.698086 19.076 -0.117297 -28.7991 1.84615 -3.14583 -12.3097 -33.5133 68.3307 0.0 0.0 0.0 -5.03957 -17.664 3.69787 -7.59608 0.237415 1.14075 -21.1182 18.3719 3.22166 1.27542 -0.0 -0.0 -0.0 0.0 -0.0 34.1912 24.2296 -12.4256 -44.5246 0.779423 -6.61975 -22.3138 -13.6797 -3.36907 15.0141 -0.0 -0.0 0.0 0.0 0.0 
601.911101811 701.62 -1131.2874194 173.125996937 -58.0389488097 177.981283758 -5.32436 -0.112775 -1.0511 -5.32375 -0.045666 -1.05615 -5.32178 0.273252 -1.02121 -5.32322 0.108551 -1.05155 4.44127 9.31741 2.28591 4.64778 14.0838 3.08568 -0.0 0.0 -0.0 6.63317 22.4546 12.0051 0.241939 -37.6997 58.627 1.6392 -39.074 0.581699 -5.76733 -0.238554 0.697277 7.90431 -12.8797 55.5149 -0.0 0.0 -0.0 6.96412 11.8246 -13.2295 -27.1164 54.7863 -36.7581 0.635248 17.468 -0.0975937 -26.4411 1.63767 -2.92698 -12.5035 -34.3833 68.278 0.0 0.0 0.0 -7.651 -19.4134 4.52297 -6.4392 0.211061 0.965171 -21.5337 22.1602 3.33023 -0.472986 0.0 0.0 -0.0 0.0 -0.0 32.6564 29.0051 -10.9979 -33.4443 0.103197 -5.05939 -21.8208 -15.0411 -3.30219 14.5719 -0.0 -0.0 0.0 0.0 0.0 
600.028910059 701.62 -1126.0849466 173.386675311 -56.625472226 178.290922522 -5.32436 -0.112775 -1.0511 -5.32375 -0.045666 -1.05615 -5.32178 0.273252 -1.02121 -5.32322 0.108551 -1.05155 4.44127 9.31741 2.28591 4.64778 14.0838 3.08568 -0.0 0.0 -0.0 6.63317 22.4546 12.0051 0.241939 -37.6997 58.627 1.6392 -39.074 0.581699 -5.76733 -0.238554 0.697277 7.90431 -12.8797 55.5149 -0.0 0.0 -0.0 6.96412 11.8246 -13.2295 -27.1164 54.7863 -36.7581 0.635248 17.468 -0.0975937 -26.4411 1.63767 -2.92698 -12.5035 -34.3833 68.278 0.0 0.0 0.0 -7.651 -19.4134 4.52297 -6.4392 0.211061 0.965171 -21.5337 22.1602 3.33023 -0.472986 0.0 0.0 -0.0 0.0 -0.0 32.6564 29.0051 -10.9979 -33.4443 0.103197 -5.05939 -21.8208 -15.0411 -3.30219 14.5719 -0.0 -0.0 0.0 0.0 0.0 
643.483294238 704.06 -1111.02619058 170.803091987 -56.6731196105 175.540579227 -5.78445 -0.0721915 -1.25672 -5.78358 0.00791662 -1.25877 -5.78216 0.394791 -1.19529 -5.7841 0.201078 -1.24263 2.95164 13.3564 1.69564 3.42455 21.8957 2.75198 -0.0 0.0 -0.0 6.99097 21.7732 12.5891 0.922432 -36.9396 58.4358 1.92305 -43.6055 0.769332 -2.54927 -0.0967683 0.311112 8.32592 -13.6841 59.7378 -0.0 0.0 -0.0 6.29442 8.2631 -11.9769 -27.7708 54.0711 -39.1779 0.593088 16.3729 -0.0853227 -28.987 1.86315 -3.1629 -10.8681 -28.3239 61.681 0.0 0.0 0.0 -11.5601 -20.4166 5.14362 -5.00395 0.173443 0.748128 -25.3392 21.749 3.91317 -2.56997 0.0 0.0 -0.0 0.0 -0.0 29.9791 34.3553 -10.3564 -23.0442 -0.24708 -3.50389 -11.6627 -20.5751 -1.78042 9.578 -0.0 -0.0 0.0 0.0 0.0 
670.358057913 704.202 -1104.61059806 172.681943226 -57.4141945315 176.646817626 -5.82002 -0.165225 -1.51016 -5.81875 -0.0688059 -1.51761 -5.81445 0.402258 -1.46496 -5.81741 0.165875 -1.51009 3.4448 15.4949 1.87005 4.12504 25.3932 2.96321 -0.0 0.0 -0.0 7.22514 21.2221 12.9893 1.11697 -36.2438 58.3668 2.17081 -47.0734 0.945639 0.539449 0.0186944 -0.0663593 8.60861 -14.1243 62.9401 -0.0 0.0 -0.0 6.1011 8.11066 -11.5807 -29.6089 53.0497 -38.696 0.559905 15.5021 -0.0762105 -29.6181 1.92066 -3.21983 -9.29628 -20.5944 57.2271 0.0 0.0 0.0 -13.9303 -22.1382 6.42401 -2.36628 0.0901711 0.351925 -24.2218 20.0537 3.71682 -3.90392 0.0 0.0 -0.0 0.0 -0.0 29.1108 38.6908 -9.84616 -16.3179 -0.321308 -2.47509 -4.11043 -24.1626 -0.630127 4.87187 -0.0 -0.0 0.0 0.0 0.0 
670.988956797 704.202 -1106.39024745 172.608265232 -57.7765034639 176.559551275 -5.82002 -0.165225 -1.51016 -5.81875 -0.0688059 -1.51761 -5.81445 0.402258 -1.46496 -5.81741 0.165875 -1.51009 3.4448 15.4949 1.87005 4.12504 25.3932 2.96321 -0.0 0.0 -0.0 7.22514 21.2221 12.9893 1.11697 -36.2438 58.3668 2.17081 -47.0734 0.945639 0.539449 0.0186944 -0.0663593 8.60861 -14.1243 62.9401 -0.0 0.0 -0.0 6.1011 8.11066 -11.5807 -29.6089 53.0497 -38.696 0.559905 15.5021 -0.0762105 -29.6181 1.92066 -3.21983 -9.29628 -20.5944 57.2271 0.0 0.0 0.0 -13.9303 -22.1382 6.42401 -2.36628 0.0901711 0.351925 -24.2218 20.0537 3.71682 -3.90392 0.0 0.0 -0.0 0.0 -0.0 29.1108 38.6908 -9.84616 -16.3179 -0.321308 -2.47509 -4.11043 -24.1626 -0.630127 4.87187 -0.0 -0.0 0.0 0.0 0.0 
672.329341254 704.202 -1110.29682388 172.440766887 -58.5687967019 176.362415915 -5.82002 -0.165225 -1.51016 -5.81875 -0.0688059 -1.51761 -5.81445 0.402258 -1.46496 -5.81741 0.165875 -1.51009 3.4448 15.4949 1.87005 4.12504 25.3932 2.96321 -0.0 0.0 -0.0 7.22514 21.2221 12.9893 1.11697 -36.2438 58.3668 2.17081 -47.0734 0.945639 0.539449 0.0186944 -0.0663593 8.60861 -14.1243 62.9401 -0.0 0.0 -0.0 6.1011 8.11066 -11.5807 -29.6089 53.0497 -38.696 0.559905 15.5021 -0.0762105 -29.6181 1.92066 -3.21983 -9.29628 -20.5944 57.2271 0.0 0.0 0.0 -13.9303 -22.1382 6.42401 -2.36628 0.0901711 0.351925 -24.2218 20.0537 3.71682 -3.90392 0.0 0.0 -0.0 0.0 -0.0 29.1108 38.6908 -9.84616 -16.3179 -0.321308 -2.47509 -4.11043 -24.1626 -0.630127 4.87187 -0.0 -0.0 0.0 0.0 0.0 
672.612919249 704.202 -1111.14674546 172.403234473 -58.7406329694 176.31846947 -5.82002 -0.165225 -1.51016 -5.81875 -0.0688059 -1.51761 -5.81445 0.402258 -1.46496 -5.81741 0.165875 -1.51009 3.4448 15.4949 1.87005 4.12504 25.3932 2.96321 -0.0 0.0 -0.0 7.22514 21.2221 12.9893 1.11697 -36.2438 58.3668 2.17081 -47.0734 0.945639 0.539449 0.0186944 -0.0663593 8.60861 -14.1243 62.9401 -0.0 0.0 -0.0 6.1011 8.11066 -11.5807 -29.6089 53.0497 -38.696 0.559905 15.5021 -0.0762105 -29.6181 1.92066 -3.21983 -9.29628 -20.5944 57.2271 0.0 0.0 0.0 -13.9303 -22.1382 6.42401 -2.36628 0.0901711 0.351925 -24.2218 20.0537 3.71682 -3.90392 0.0 0.0 -0.0 0.0 -0.0 29.1108 38.6908 -9.84616 -16.3179 -0.321308 -2.47509 -4.11043 -24.1626 -0.630127 4.87187 -0.0 -0.0 0.0 0.0 0.0 
